<svg width="48" height="48" viewBox="0 0 48 48" fill="none" xmlns="http://www.w3.org/2000/svg">
<rect width="48" height="48" rx="24" fill="#34D5D1"/>
<g clip-path="url(#clip0_1_5)">
<path d="M33.718 14H16.632C15.6691 14.0011 14.7459 14.3841 14.065 15.065C13.3841 15.7459 13.001 16.669 13 17.632V33.91C13.0004 34.0826 13.0483 34.2518 13.1384 34.3991C13.2284 34.5463 13.3571 34.666 13.5106 34.7451C13.6641 34.8241 13.8363 34.8595 14.0085 34.8473C14.1807 34.8351 14.3462 34.7759 14.487 34.676L19.66 30.985C20.0911 30.6766 20.608 30.5111 21.138 30.512H31.027C31.99 30.5109 32.9131 30.128 33.594 29.4471C34.2749 28.7661 34.6579 27.8429 34.659 26.88V14.941C34.659 14.6914 34.5599 14.4521 34.3834 14.2756C34.2069 14.0991 33.9676 14 33.718 14V14ZM29.148 25.4H18.277C18.0275 25.4 17.7881 25.3009 17.6116 25.1244C17.4351 24.9479 17.336 24.7086 17.336 24.459C17.336 24.2094 17.4351 23.9701 17.6116 23.7936C17.7881 23.6171 18.0275 23.518 18.277 23.518H29.148C29.3976 23.518 29.6369 23.6171 29.8134 23.7936C29.9899 23.9701 30.089 24.2094 30.089 24.459C30.0884 24.7082 29.9891 24.9471 29.8127 25.1231C29.6363 25.2991 29.3972 25.398 29.148 25.398V25.4ZM29.148 21.009H18.277C18.0275 21.009 17.7881 20.9099 17.6116 20.7334C17.4351 20.5569 17.336 20.3176 17.336 20.068C17.336 19.8184 17.4351 19.5791 17.6116 19.4026C17.7881 19.2261 18.0275 19.127 18.277 19.127H29.148C29.3976 19.127 29.6369 19.2261 29.8134 19.4026C29.9899 19.5791 30.089 19.8184 30.089 20.068C30.0884 20.3172 29.9891 20.556 29.8127 20.7321C29.6363 20.9081 29.3972 21.007 29.148 21.007V21.009Z" fill="white"/>
</g>
<defs>
<clipPath id="clip0_1_5">
<rect width="21.659" height="20.851" fill="white" transform="translate(13 14)"/>
</clipPath>
</defs>
</svg>
